<svg xmlns="http://www.w3.org/2000/svg" viewBox="0 0 64 64" fill="currentColor">
  <!-- Ant abdomen -->
  <ellipse cx="32" cy="45" rx="6" ry="12" fill="#8B0000"/>

  <!-- Ant thorax -->
  <ellipse cx="32" cy="28" rx="4" ry="8" fill="#A52A2A"/>

  <!-- Ant head -->
  <circle cx="32" cy="16" r="5" fill="#DC143C"/>

  <!-- Antennae -->
  <path d="M28 12 Q24 8 20 6" stroke="currentColor" stroke-width="2" fill="none"/>
  <path d="M36 12 Q40 8 44 6" stroke="currentColor" stroke-width="2" fill="none"/>

  <!-- Eyes -->
  <circle cx="29" cy="14" r="1.5" fill="#000"/>
  <circle cx="35" cy="14" r="1.5" fill="#000"/>

  <!-- Mandibles -->
  <path d="M30 18 L28 20" stroke="currentColor" stroke-width="2"/>
  <path d="M34 18 L36 20" stroke="currentColor" stroke-width="2"/>

  <!-- Legs (6 legs) -->
  <path d="M28 24 L22 22" stroke="currentColor" stroke-width="2"/>
  <path d="M36 24 L42 22" stroke="currentColor" stroke-width="2"/>
  <path d="M28 30 L20 32" stroke="currentColor" stroke-width="2"/>
  <path d="M36 30 L44 32" stroke="currentColor" stroke-width="2"/>
  <path d="M28 36 L22 42" stroke="currentColor" stroke-width="2"/>
  <path d="M36 36 L42 42" stroke="currentColor" stroke-width="2"/>

  <!-- Body connection -->
  <ellipse cx="32" cy="22" rx="2" ry="3" fill="#A52A2A"/>
  <ellipse cx="32" cy="36" rx="2" ry="3" fill="#A52A2A"/>
</svg>