<svg xmlns="http://www.w3.org/2000/svg" viewBox="0 0 64 64" fill="currentColor">
  <!-- Bed bug body -->
  <ellipse cx="32" cy="32" rx="8" ry="12" fill="#8B4513"/>
  
  <!-- Bed bug head -->
  <ellipse cx="32" cy="20" rx="5" ry="4" fill="#A0522D"/>
  
  <!-- Antennae -->
  <path d="M28 17 Q24 14 22 10" stroke="currentColor" stroke-width="1.5" fill="none"/>
  <path d="M36 17 Q40 14 42 10" stroke="currentColor" stroke-width="1.5" fill="none"/>
  
  <!-- Eyes -->
  <circle cx="29" cy="18" r="1" fill="#000"/>
  <circle cx="35" cy="18" r="1" fill="#000"/>
  
  <!-- Rostrum (feeding tube) -->
  <path d="M32 22 L32 25" stroke="currentColor" stroke-width="2"/>
  
  <!-- Legs (6 legs) -->
  <path d="M24 26 L18 24" stroke="currentColor" stroke-width="1.5"/>
  <path d="M40 26 L46 24" stroke="currentColor" stroke-width="1.5"/>
  <path d="M24 32 L16 32" stroke="currentColor" stroke-width="1.5"/>
  <path d="M40 32 L48 32" stroke="currentColor" stroke-width="1.5"/>
  <path d="M24 38 L18 42" stroke="currentColor" stroke-width="1.5"/>
  <path d="M40 38 L46 42" stroke="currentColor" stroke-width="1.5"/>
  
  <!-- Body segments -->
  <line x1="24" y1="28" x2="40" y2="28" stroke="#654321" stroke-width="1"/>
  <line x1="24" y1="34" x2="40" y2="34" stroke="#654321" stroke-width="1"/>
  <line x1="24" y1="40" x2="40" y2="40" stroke="#654321" stroke-width="1"/>
  
  <!-- Wing pads -->
  <ellipse cx="28" cy="30" rx="3" ry="6" fill="#654321" opacity="0.7"/>
  <ellipse cx="36" cy="30" rx="3" ry="6" fill="#654321" opacity="0.7"/>
  
  <!-- Blood spot (characteristic) -->
  <circle cx="32" cy="32" r="2" fill="#8B0000" opacity="0.6"/>
</svg>
