<svg xmlns="http://www.w3.org/2000/svg" viewBox="0 0 64 64" fill="currentColor">
  <!-- Cockroach body -->
  <ellipse cx="32" cy="38" rx="10" ry="18" fill="#654321"/>

  <!-- Cockroach head -->
  <ellipse cx="32" cy="18" rx="7" ry="5" fill="#8B4513"/>

  <!-- Antennae -->
  <path d="M25 14 Q18 8 12 6" stroke="currentColor" stroke-width="2" fill="none"/>
  <path d="M39 14 Q46 8 52 6" stroke="currentColor" stroke-width="2" fill="none"/>

  <!-- Eyes -->
  <circle cx="28" cy="16" r="2" fill="#000"/>
  <circle cx="36" cy="16" r="2" fill="#000"/>

  <!-- Legs (6 legs total) -->
  <path d="M22 26 L14 24" stroke="currentColor" stroke-width="2"/>
  <path d="M42 26 L50 24" stroke="currentColor" stroke-width="2"/>
  <path d="M22 34 L12 36" stroke="currentColor" stroke-width="2"/>
  <path d="M42 34 L52 36" stroke="currentColor" stroke-width="2"/>
  <path d="M22 42 L14 48" stroke="currentColor" stroke-width="2"/>
  <path d="M42 42 L50 48" stroke="currentColor" stroke-width="2"/>

  <!-- Wing covers -->
  <ellipse cx="28" cy="32" rx="6" ry="12" fill="#4A4A4A" opacity="0.8"/>
  <ellipse cx="36" cy="32" rx="6" ry="12" fill="#4A4A4A" opacity="0.8"/>

  <!-- Body segments -->
  <line x1="22" y1="28" x2="42" y2="28" stroke="#4A4A4A" stroke-width="1"/>
  <line x1="22" y1="36" x2="42" y2="36" stroke="#4A4A4A" stroke-width="1"/>
  <line x1="22" y1="44" x2="42" y2="44" stroke="#4A4A4A" stroke-width="1"/>
</svg>