<svg xmlns="http://www.w3.org/2000/svg" viewBox="0 0 64 64" fill="currentColor">
  <!-- Spray bottle body -->
  <rect x="24" y="32" width="16" height="24" rx="2" fill="#4A90E2"/>
  
  <!-- Spray bottle neck -->
  <rect x="30" y="28" width="4" height="8" fill="#357ABD"/>
  
  <!-- Spray nozzle -->
  <rect x="28" y="24" width="8" height="4" rx="2" fill="#2C5F8A"/>
  
  <!-- Trigger -->
  <path d="M24 36 Q18 38 18 42 Q18 46 24 44" fill="#357ABD"/>
  
  <!-- Label on bottle -->
  <rect x="26" y="38" width="12" height="6" rx="1" fill="#FFF" opacity="0.8"/>
  <rect x="27" y="39" width="10" height="1" fill="#4A90E2"/>
  <rect x="27" y="41" width="8" height="1" fill="#4A90E2"/>
  <rect x="27" y="43" width="6" height="1" fill="#4A90E2"/>
  
  <!-- Spray particles -->
  <circle cx="20" cy="20" r="1" fill="#87CEEB" opacity="0.7"/>
  <circle cx="16" cy="18" r="0.8" fill="#87CEEB" opacity="0.6"/>
  <circle cx="14" cy="22" r="0.6" fill="#87CEEB" opacity="0.5"/>
  <circle cx="18" cy="16" r="0.7" fill="#87CEEB" opacity="0.6"/>
  <circle cx="12" cy="20" r="0.5" fill="#87CEEB" opacity="0.4"/>
  <circle cx="22" cy="16" r="0.9" fill="#87CEEB" opacity="0.7"/>
  <circle cx="10" cy="18" r="0.4" fill="#87CEEB" opacity="0.3"/>
  
  <!-- Virus/bacteria symbols being eliminated -->
  <g opacity="0.4">
    <circle cx="46" cy="16" r="3" fill="#FF6B6B"/>
    <circle cx="46" cy="16" r="1.5" fill="#FF4444"/>
    <path d="M43 16 L49 16 M46 13 L46 19" stroke="#FF4444" stroke-width="1"/>
  </g>
  
  <g opacity="0.3">
    <circle cx="50" cy="22" r="2.5" fill="#FF6B6B"/>
    <circle cx="50" cy="22" r="1" fill="#FF4444"/>
    <path d="M47.5 22 L52.5 22 M50 19.5 L50 24.5" stroke="#FF4444" stroke-width="0.8"/>
  </g>
  
  <!-- Disinfection effect lines -->
  <path d="M32 26 L44 14" stroke="#87CEEB" stroke-width="2" opacity="0.6"/>
  <path d="M32 26 L48 18" stroke="#87CEEB" stroke-width="1.5" opacity="0.5"/>
  <path d="M32 26 L46 22" stroke="#87CEEB" stroke-width="1.5" opacity="0.5"/>
</svg>
