<svg xmlns="http://www.w3.org/2000/svg" viewBox="0 0 64 64" fill="currentColor">
  <!-- Flea (left side) -->
  <ellipse cx="20" cy="32" rx="4" ry="8" fill="#654321"/>
  
  <!-- Flea head -->
  <circle cx="20" cy="22" r="3" fill="#8B4513"/>
  
  <!-- Flea powerful hind legs -->
  <path d="M16 36 Q8 42 6 48" stroke="currentColor" stroke-width="2"/>
  <path d="M24 36 Q32 42 34 48" stroke="currentColor" stroke-width="2"/>
  
  <!-- Flea front legs -->
  <path d="M18 28 L14 32" stroke="currentColor" stroke-width="1.5"/>
  <path d="M22 28 L26 32" stroke="currentColor" stroke-width="1.5"/>
  
  <!-- Flea antennae -->
  <path d="M18 20 Q14 16 12 14" stroke="currentColor" stroke-width="1" fill="none"/>
  <path d="M22 20 Q26 16 28 14" stroke="currentColor" stroke-width="1" fill="none"/>
  
  <!-- Tick (right side) -->
  <ellipse cx="44" cy="32" rx="6" ry="8" fill="#4A4A4A"/>
  
  <!-- Tick head/mouthparts -->
  <ellipse cx="44" cy="24" rx="2" ry="3" fill="#2F2F2F"/>
  
  <!-- Tick legs (8 legs) -->
  <path d="M38 28 L32 26" stroke="currentColor" stroke-width="1.5"/>
  <path d="M50 28 L56 26" stroke="currentColor" stroke-width="1.5"/>
  <path d="M38 32 L30 32" stroke="currentColor" stroke-width="1.5"/>
  <path d="M50 32 L58 32" stroke="currentColor" stroke-width="1.5"/>
  <path d="M38 36 L32 38" stroke="currentColor" stroke-width="1.5"/>
  <path d="M50 36 L56 38" stroke="currentColor" stroke-width="1.5"/>
  <path d="M40 40 L34 44" stroke="currentColor" stroke-width="1.5"/>
  <path d="M48 40 L54 44" stroke="currentColor" stroke-width="1.5"/>
  
  <!-- Tick scutum (shield) -->
  <ellipse cx="44" cy="30" rx="3" ry="4" fill="#1A1A1A"/>
  
  <!-- Body segments/texture -->
  <circle cx="20" cy="30" r="1" fill="#4A4A4A" opacity="0.5"/>
  <circle cx="44" cy="34" r="1" fill="#6A6A6A" opacity="0.5"/>
</svg>
