<svg xmlns="http://www.w3.org/2000/svg" viewBox="0 0 64 64" fill="currentColor">
  <!-- Mouse body -->
  <ellipse cx="32" cy="38" rx="12" ry="16" fill="#8B7355"/>

  <!-- Mouse head -->
  <ellipse cx="32" cy="20" rx="8" ry="6" fill="#A0522D"/>

  <!-- Ears -->
  <ellipse cx="26" cy="14" rx="4" ry="6" fill="#CD853F"/>
  <ellipse cx="38" cy="14" rx="4" ry="6" fill="#CD853F"/>
  <ellipse cx="26" cy="14" rx="2" ry="3" fill="#DEB887"/>
  <ellipse cx="38" cy="14" rx="2" ry="3" fill="#DEB887"/>

  <!-- Eyes -->
  <circle cx="29" cy="18" r="2" fill="#000"/>
  <circle cx="35" cy="18" r="2" fill="#000"/>
  <circle cx="29.5" cy="17.5" r="0.5" fill="#FFF"/>
  <circle cx="35.5" cy="17.5" r="0.5" fill="#FFF"/>

  <!-- Nose -->
  <ellipse cx="32" cy="22" rx="1" ry="0.5" fill="#000"/>

  <!-- Whiskers -->
  <path d="M24 20 L18 18" stroke="currentColor" stroke-width="1" fill="none"/>
  <path d="M24 22 L18 22" stroke="currentColor" stroke-width="1" fill="none"/>
  <path d="M40 20 L46 18" stroke="currentColor" stroke-width="1" fill="none"/>
  <path d="M40 22 L46 22" stroke="currentColor" stroke-width="1" fill="none"/>

  <!-- Tail -->
  <path d="M44 42 Q52 38 58 32 Q60 28 58 24" stroke="currentColor" stroke-width="3" fill="none"/>

  <!-- Legs -->
  <ellipse cx="26" cy="50" rx="2" ry="4" fill="#8B7355"/>
  <ellipse cx="38" cy="50" rx="2" ry="4" fill="#8B7355"/>
  <ellipse cx="28" cy="32" rx="1.5" ry="3" fill="#8B7355"/>
  <ellipse cx="36" cy="32" rx="1.5" ry="3" fill="#8B7355"/>
</svg>